<svg id="Layer_1" data-name="Layer 1" xmlns="http://www.w3.org/2000/svg" xmlns:xlink="http://www.w3.org/1999/xlink" viewBox="0 0 377 448"><defs><style>.cls-1{fill:url(#linear-gradient);}.cls-2{fill:url(#linear-gradient-2);}.cls-3{fill:url(#linear-gradient-3);}.cls-4{fill:url(#linear-gradient-4);}.cls-5{fill:url(#linear-gradient-5);}.cls-6{fill:url(#linear-gradient-6);}.cls-7{fill:url(#linear-gradient-7);}.cls-8{fill:url(#linear-gradient-8);}.cls-9{fill:url(#linear-gradient-9);}.cls-10{fill:url(#linear-gradient-10);}.cls-11{fill:url(#linear-gradient-11);}.cls-12{fill:url(#linear-gradient-12);}.cls-13{fill:url(#linear-gradient-13);}.cls-14{fill:url(#linear-gradient-14);}.cls-15{fill:url(#linear-gradient-15);}.cls-16{fill:url(#linear-gradient-16);}.cls-17{fill:url(#linear-gradient-17);}.cls-18{fill:url(#linear-gradient-18);}.cls-19{fill:url(#linear-gradient-19);}.cls-20{fill:url(#linear-gradient-20);}.cls-21{fill:url(#linear-gradient-21);}.cls-22{fill:url(#linear-gradient-22);}.cls-23{fill:url(#linear-gradient-23);}.cls-24{fill:url(#linear-gradient-24);}.cls-25{fill:url(#linear-gradient-25);}.cls-26{fill:url(#linear-gradient-26);}.cls-27{fill:url(#linear-gradient-27);}.cls-28{fill:url(#linear-gradient-28);}.cls-29{fill:url(#linear-gradient-29);}.cls-30{fill:url(#linear-gradient-30);}.cls-31{fill:url(#linear-gradient-31);}.cls-32{fill:url(#linear-gradient-32);}.cls-33{fill:url(#linear-gradient-33);}.cls-34{fill:url(#linear-gradient-34);}.cls-35{fill:url(#linear-gradient-35);}.cls-36{fill:url(#linear-gradient-36);}.cls-37{fill:url(#linear-gradient-37);}.cls-38{fill:url(#linear-gradient-38);}.cls-39{fill:url(#linear-gradient-39);}.cls-40{fill:url(#linear-gradient-40);}.cls-41{fill:url(#linear-gradient-41);}.cls-42{fill:url(#linear-gradient-42);}.cls-43{fill:url(#linear-gradient-43);}.cls-44{fill:url(#linear-gradient-44);}.cls-45{fill:url(#linear-gradient-45);}.cls-46{fill:url(#linear-gradient-46);}.cls-47{fill:url(#linear-gradient-47);}.cls-48{fill:url(#linear-gradient-48);}</style><linearGradient id="linear-gradient" x1="193.45" y1="315.73" x2="193.45" y2="192.24" gradientUnits="userSpaceOnUse"><stop offset="0" stop-color="#23456d"/><stop offset="0.01" stop-color="#214871"/><stop offset="0.1" stop-color="#165687"/><stop offset="0.2" stop-color="#0e6198"/><stop offset="0.33" stop-color="#0869a3"/><stop offset="0.51" stop-color="#056eaa"/><stop offset="1" stop-color="#046fac"/></linearGradient><linearGradient id="linear-gradient-2" x1="297.12" y1="252.44" x2="297.12" y2="209.31" xlink:href="#linear-gradient"/><linearGradient id="linear-gradient-3" x1="94.45" y1="271.01" x2="94.45" y2="235.7" xlink:href="#linear-gradient"/><linearGradient id="linear-gradient-4" x1="190.67" y1="98.7" x2="198.17" y2="232.84" gradientUnits="userSpaceOnUse"><stop offset="0" stop-color="#00b4ea"/><stop offset="1" stop-color="#237cc1"/></linearGradient><linearGradient id="linear-gradient-5" x1="189.26" y1="54.03" x2="189.26" y2="80.01" xlink:href="#linear-gradient-4"/><linearGradient id="linear-gradient-6" x1="260.98" y1="141.76" x2="226.76" y2="224.19" xlink:href="#linear-gradient-4"/><linearGradient id="linear-gradient-7" x1="274.4" y1="107.67" x2="274.4" y2="127.68" xlink:href="#linear-gradient-4"/><linearGradient id="linear-gradient-8" x1="121.9" y1="170.25" x2="192.59" y2="238.95" xlink:href="#linear-gradient-4"/><linearGradient id="linear-gradient-9" x1="103.83" y1="141.15" x2="103.83" y2="160.73" xlink:href="#linear-gradient-4"/><linearGradient id="linear-gradient-10" x1="188.5" y1="70.76" x2="188.5" y2="22.88" gradientUnits="userSpaceOnUse"><stop offset="0" stop-color="#dc2028"/><stop offset="0.05" stop-color="#e12c27"/><stop offset="0.16" stop-color="#e83d25"/><stop offset="0.29" stop-color="#ec4824"/><stop offset="0.48" stop-color="#ef4f23"/><stop offset="1" stop-color="#f05123"/></linearGradient><linearGradient id="linear-gradient-11" x1="171.81" y1="336.23" x2="190.57" y2="161.83" gradientUnits="userSpaceOnUse"><stop offset="0" stop-color="#f05123"/><stop offset="1" stop-color="#dc2028"/></linearGradient><linearGradient id="linear-gradient-12" x1="69.93" y1="90.6" x2="69.93" y2="77.73" xlink:href="#linear-gradient-10"/><linearGradient id="linear-gradient-13" x1="49.88" y1="121.4" x2="49.88" y2="108.54" xlink:href="#linear-gradient-10"/><linearGradient id="linear-gradient-14" x1="37.68" y1="159.17" x2="37.68" y2="146.31" xlink:href="#linear-gradient-10"/><linearGradient id="linear-gradient-15" x1="304.6" y1="90.15" x2="304.6" y2="77.29" xlink:href="#linear-gradient-10"/><linearGradient id="linear-gradient-16" x1="325.32" y1="122.29" x2="325.32" y2="109.43" xlink:href="#linear-gradient-10"/><linearGradient id="linear-gradient-17" x1="336.39" y1="160.53" x2="336.39" y2="147.67" xlink:href="#linear-gradient-10"/><linearGradient id="linear-gradient-18" x1="42.23" y1="356.06" x2="42.23" y2="384.99" gradientUnits="userSpaceOnUse"><stop offset="0" stop-color="#046fac"/><stop offset="1" stop-color="#23456d"/></linearGradient><linearGradient id="linear-gradient-19" x1="67.62" y1="356.06" x2="67.62" y2="384.99" xlink:href="#linear-gradient-18"/><linearGradient id="linear-gradient-20" x1="95.72" y1="356.06" x2="95.72" y2="384.99" xlink:href="#linear-gradient-18"/><linearGradient id="linear-gradient-21" x1="122.27" y1="356.06" x2="122.27" y2="384.99" xlink:href="#linear-gradient-18"/><linearGradient id="linear-gradient-22" x1="148.58" y1="356.06" x2="148.58" y2="384.99" xlink:href="#linear-gradient-18"/><linearGradient id="linear-gradient-23" x1="180.12" y1="356.06" x2="180.12" y2="384.99" xlink:href="#linear-gradient-18"/><linearGradient id="linear-gradient-24" x1="221.97" y1="356.06" x2="221.97" y2="384.99" xlink:href="#linear-gradient-18"/><linearGradient id="linear-gradient-25" x1="250.16" y1="356.06" x2="250.16" y2="384.99" xlink:href="#linear-gradient-18"/><linearGradient id="linear-gradient-26" x1="277.18" y1="356.06" x2="277.18" y2="384.99" xlink:href="#linear-gradient-18"/><linearGradient id="linear-gradient-27" x1="306.11" y1="356.06" x2="306.11" y2="384.99" xlink:href="#linear-gradient-18"/><linearGradient id="linear-gradient-28" x1="333.37" y1="356.06" x2="333.37" y2="384.99" xlink:href="#linear-gradient-18"/><linearGradient id="linear-gradient-29" x1="38.07" y1="425.1" x2="39.93" y2="407.83" gradientUnits="userSpaceOnUse"><stop offset="0" stop-color="#dc2028"/><stop offset="1" stop-color="#f05123"/></linearGradient><linearGradient id="linear-gradient-30" x1="53.51" y1="424.93" x2="55.33" y2="408" xlink:href="#linear-gradient-29"/><linearGradient id="linear-gradient-31" x1="66.2" y1="424.85" x2="67.95" y2="408.64" xlink:href="#linear-gradient-29"/><linearGradient id="linear-gradient-32" x1="78.32" y1="424.89" x2="80.08" y2="408.5" xlink:href="#linear-gradient-29"/><linearGradient id="linear-gradient-33" x1="105.21" y1="425.05" x2="107.06" y2="407.91" xlink:href="#linear-gradient-29"/><linearGradient id="linear-gradient-34" x1="121.32" y1="424.49" x2="123.1" y2="407.87" xlink:href="#linear-gradient-29"/><linearGradient id="linear-gradient-35" x1="137.13" y1="425.1" x2="138.98" y2="407.83" xlink:href="#linear-gradient-29"/><linearGradient id="linear-gradient-36" x1="152.57" y1="424.93" x2="154.39" y2="408" xlink:href="#linear-gradient-29"/><linearGradient id="linear-gradient-37" x1="166.4" y1="424.97" x2="168.17" y2="408.56" xlink:href="#linear-gradient-29"/><linearGradient id="linear-gradient-38" x1="180.93" y1="425.03" x2="182.76" y2="407.96" xlink:href="#linear-gradient-29"/><linearGradient id="linear-gradient-39" x1="206.79" y1="425.37" x2="208.64" y2="408.11" xlink:href="#linear-gradient-29"/><linearGradient id="linear-gradient-40" x1="231.53" y1="424.94" x2="233.28" y2="408.62" xlink:href="#linear-gradient-29"/><linearGradient id="linear-gradient-41" x1="245.52" y1="424.93" x2="247.34" y2="408" xlink:href="#linear-gradient-29"/><linearGradient id="linear-gradient-42" x1="269" y1="425.1" x2="270.86" y2="407.83" xlink:href="#linear-gradient-29"/><linearGradient id="linear-gradient-43" x1="287.03" y1="425.35" x2="288.9" y2="407.95" xlink:href="#linear-gradient-29"/><linearGradient id="linear-gradient-44" x1="302" y1="424.89" x2="303.77" y2="408.5" xlink:href="#linear-gradient-29"/><linearGradient id="linear-gradient-45" x1="316.56" y1="424.89" x2="318.32" y2="408.5" xlink:href="#linear-gradient-29"/><linearGradient id="linear-gradient-46" x1="331.11" y1="424.48" x2="332.92" y2="407.7" xlink:href="#linear-gradient-29"/><linearGradient id="linear-gradient-47" x1="342.16" y1="424.77" x2="342.53" y2="421.36" xlink:href="#linear-gradient-29"/><linearGradient id="linear-gradient-48" x1="186.6" y1="414.26" x2="190.4" y2="378.87" xlink:href="#linear-gradient-11"/></defs><path class="cls-1" d="M332.74,192.44c-7.37,2.52-11.47,8-12.63,15.45-1,6.43-2.36,12.63-6.05,18.05a111.47,111.47,0,0,1-8.15,10.65c-7.07,8.09-15.06,15-25.33,18.75-5.3,2-10.71,3.15-16.74,2.28.73-.81,1.23-1.38,1.76-1.94a40.3,40.3,0,0,0,9.5-16.81c2-7-.75-15.13-6.07-18.59-3.15-2.05-5-1.26-5.85,2.35a27.92,27.92,0,0,1-1.9,5.73c-5.71,11.5-15,19.26-26.38,24.67-8.7,4.11-15.36,10.1-18.32,19.55a12.24,12.24,0,0,0-.62,3.62c-12.93,11.3-32.52,6.91-32.52,6.91a11.63,11.63,0,0,0-1.64-5.76c-4.92-8.62-12.69-13-22.06-15.21-12.31-2.86-23-8.46-31-18.49a26.34,26.34,0,0,1-3.07-5.2c-1.62-3.35-3.59-3.72-6.24-1-4.46,4.51-5.36,13.08-2,19.46a40.07,40.07,0,0,0,12.85,14.4c.64.44,1.26.89,2.13,1.53-5.7,2.12-11.24,2.11-16.82,1.33-10.85-1.51-20.14-6.53-28.75-12.93a111.4,111.4,0,0,1-10.23-8.68c-4.75-4.5-7.4-10.27-9.76-16.34-2.46-6.35-6.93-10.63-13.48-12a146.24,146.24,0,0,0,184.84,83.09,144.51,144.51,0,0,0,31.54-15.85h0a0,0,0,0,0,0,0h0A145.07,145.07,0,0,0,290.23,275l0,0a147.59,147.59,0,0,0,20.2-24,144.94,144.94,0,0,0,23.07-58.69A5.25,5.25,0,0,0,332.74,192.44Z"/><path class="cls-2" d="M283.24,250.46c12.57-6.67,22.81-15.68,28.79-28.89a51.78,51.78,0,0,0,2.9-8.16c.73-2.85-1.14-4.56-4.05-4a10.39,10.39,0,0,0-2.48.85c-4.48,2.18-6.5,6.22-7.82,10.7a51.82,51.82,0,0,1-11.68,21.27c-3.15,3.38-6.49,6.59-9.74,9.87l.12.33C280.6,251.78,281.94,251.15,283.24,250.46Z"/><path class="cls-3" d="M77.67,247.81c8.65,11.64,20.58,18.26,34.28,22.1,1.42.4,2.86.74,4.28,1.1l.06-.35c-3.88-2.51-7.82-4.94-11.62-7.57A51.91,51.91,0,0,1,88.73,244.8c-2.24-4.11-5.08-7.62-9.92-8.8a10.43,10.43,0,0,0-2.6-.3c-3,.06-4.43,2.13-3.11,4.75A49.37,49.37,0,0,0,77.67,247.81Z"/><path class="cls-4" d="M208.63,237.3l-.09-.1a117,117,0,0,1-18-28.66c-10.55-23.81-18.24-53-20.13-60.45l14.16,57.75c-51.59-76.26-30.84-121-30.84-121,32.1,28.46,77.21.59,78.14,0C181,184.37,208.63,237.3,208.63,237.3Z"/><circle class="cls-5" cx="189.26" cy="66.99" r="12.68"/><path class="cls-6" d="M293.32,146.63c-69.91,42.78-72.87,86.47-72.87,86.47l0-.09a86.52,86.52,0,0,1-.35-24.58c2.44-18.62,8.65-39.52,10.48-45.44L217.42,204.2h0c-3.07-67.44,27-87.49,27-87.49C253.72,147.12,293.32,146.63,293.32,146.63Z"/><circle class="cls-7" cx="274.4" cy="117.73" r="9.3"/><path class="cls-8" d="M196.67,237.82a84.44,84.44,0,0,1-23.37-7.24c-17.31-8.24-35.68-21-40.31-24.28l35.4,25.48c-65.08-18-74.8-52.81-74.8-52.81,31.77.6,43.58-37.2,43.58-37.2,18.72,78.48,58.36,95.55,59.6,96.07Z"/><circle class="cls-9" cx="103.83" cy="150.79" r="9.3"/><path class="cls-10" d="M89.15,70.76a5.41,5.41,0,0,1-3.55-9.49,157.1,157.1,0,0,1,205.8,0,5.4,5.4,0,1,1-7.09,8.16,146.28,146.28,0,0,0-191.62,0A5.45,5.45,0,0,1,89.15,70.76Z"/><path class="cls-11" d="M346.28,180c-10.12,212.79-310,206.62-315.56-1.41,2.36,47.73,25.18,90.27,62.91,118.9C167,352.94,268.67,332,317.34,262.3h0a156.76,156.76,0,0,0,28.75-83.73A6,6,0,0,1,346.28,180Z"/><polygon class="cls-12" points="69.93 77.73 71.53 82.65 76.69 82.65 72.51 85.68 74.11 90.6 69.93 87.56 65.75 90.6 67.35 85.68 63.17 82.65 68.33 82.65 69.93 77.73"/><polygon class="cls-13" points="49.88 108.54 51.47 113.45 56.64 113.45 52.46 116.49 54.05 121.4 49.88 118.36 45.7 121.4 47.29 116.49 43.11 113.45 48.28 113.45 49.88 108.54"/><polygon class="cls-14" points="37.68 146.31 39.27 151.22 44.44 151.22 40.26 154.26 41.86 159.17 37.68 156.13 33.5 159.17 35.09 154.26 30.91 151.22 36.08 151.22 37.68 146.31"/><polygon class="cls-15" points="304.6 77.29 303 82.2 297.83 82.2 302.01 85.24 300.42 90.15 304.6 87.12 308.78 90.15 307.18 85.24 311.36 82.2 306.19 82.2 304.6 77.29"/><polygon class="cls-16" points="325.32 109.43 323.72 114.34 318.56 114.34 322.73 117.38 321.14 122.29 325.32 119.25 329.5 122.29 327.9 117.38 332.08 114.34 326.91 114.34 325.32 109.43"/><polygon class="cls-17" points="336.39 147.67 334.79 152.58 329.63 152.58 333.81 155.62 332.21 160.53 336.39 157.49 340.57 160.53 338.97 155.62 343.15 152.58 337.99 152.58 336.39 147.67"/><path class="cls-18" d="M40,364.55A29.1,29.1,0,0,0,45,368a44.62,44.62,0,0,1,3.86,2.37,9.62,9.62,0,0,1,2.44,2.56,6.37,6.37,0,0,1,1,3.56,6.73,6.73,0,0,1-2.94,5.79,13.22,13.22,0,0,1-7.87,2.11,12.75,12.75,0,0,1-6.8-1.6,4.9,4.9,0,0,1-2.59-4.34,3.51,3.51,0,0,1,1.22-2.82,4.56,4.56,0,0,1,3.06-1,5.67,5.67,0,0,1,2.73.71c-1.23.64-1.84,1.88-1.84,3.74a3.78,3.78,0,0,0,1.22,2.83A4.58,4.58,0,0,0,41.81,383a4.61,4.61,0,0,0,3.36-1.18,4,4,0,0,0,1.22-3,4.36,4.36,0,0,0-1.52-3.42,29.66,29.66,0,0,0-4.6-3.12,37.76,37.76,0,0,1-4-2.43,10.18,10.18,0,0,1-2.64-2.79,7.06,7.06,0,0,1-1.07-3.93,6.52,6.52,0,0,1,2.88-5.49,12.44,12.44,0,0,1,7.51-2.11,12.36,12.36,0,0,1,6.48,1.52,4.54,4.54,0,0,1,2.49,4,3.12,3.12,0,0,1-1.07,2.52,4.32,4.32,0,0,1-2.91.92,6.63,6.63,0,0,1-2.73-.65,4,4,0,0,0,1.19-1.49,4.37,4.37,0,0,0,.41-1.84A3.35,3.35,0,0,0,45.73,358a4.3,4.3,0,0,0-3.14-1,4.25,4.25,0,0,0-3.12,1.07,3.47,3.47,0,0,0-1.1,2.61A5,5,0,0,0,40,364.55Z"/><path class="cls-19" d="M79.47,381.12a10.69,10.69,0,0,0,2.2,2.11l-.53.6H70.38L70,382.76l.89-.24a3,3,0,0,0,1.28-.74,1.85,1.85,0,0,0,.38-1.22,11.94,11.94,0,0,0-.65-2.44l-1.19-3.5H61.53l-.47,1.48a14,14,0,0,0-.89,4,5.88,5.88,0,0,0,.47,2.38l.42.71-.54.6H54l-.42-1.07.9-.24a4.67,4.67,0,0,0,2.13-1.16A7.33,7.33,0,0,0,58,378.72L64,361.25a8.93,8.93,0,0,0,.41-2.07c0-.88-.63-1.49-1.9-1.85l-.65-.17.42-1.07h8.07l7.79,22.39A10.45,10.45,0,0,0,79.47,381.12ZM70.15,373l-4-12.06-4,12.06Z"/><path class="cls-20" d="M107,360.18a14.93,14.93,0,0,0-.38,3.69v16.57a3.82,3.82,0,0,0,.53,2.08l.54.71-.54.6H101L87.79,361.08v15a15.11,15.11,0,0,0,.38,3.78,8.52,8.52,0,0,0,1.34,2.7l.54.71-.54.6H83l-.42-1.07a10.16,10.16,0,0,0,2.17-.78,1.82,1.82,0,0,0,.86-1,6.45,6.45,0,0,0,.24-2.07V363.21a11,11,0,0,0-.48-3.8,7,7,0,0,0-2.08-2.55l.48-.77h7.72L104.72,379V361a3.42,3.42,0,0,0-.74-2.5,7.88,7.88,0,0,0-3.06-1.36l.35-1.07h7.07l.54.65-.54.65A9.16,9.16,0,0,0,107,360.18Z"/><path class="cls-21" d="M134.24,356.74l-.6.65a25.41,25.41,0,0,0-2.73,4.1l-5.4,10.34v7.07a6.21,6.21,0,0,0,.26,2.05,2,2,0,0,0,.92,1,11.32,11.32,0,0,0,2.08.78l-.35,1.07H118l-.47-.6.47-.71a7.77,7.77,0,0,0,1.4-2.7,14.65,14.65,0,0,0,.38-3.78V372l-5.64-10.34a16.79,16.79,0,0,0-1.78-2.94,10.48,10.48,0,0,0-2.08-1.93l.54-.65h10.87l.29,1.07-.89.23c-1.15.24-1.72.7-1.72,1.37a2.69,2.69,0,0,0,.3,1c.19.44.49,1,.89,1.78l4,7.6,4.27-8.13a2.92,2.92,0,0,0,.48-1.55,2,2,0,0,0-.48-1.33,2.18,2.18,0,0,0-1.19-.75l-1.12-.23.35-1.07h6.83Z"/><path class="cls-22" d="M160.43,381.12a10.69,10.69,0,0,0,2.2,2.11l-.53.6H151.35l-.36-1.07.89-.24a3,3,0,0,0,1.28-.74,1.85,1.85,0,0,0,.38-1.22,11.26,11.26,0,0,0-.65-2.44l-1.19-3.5h-9.21L142,376.1a14.35,14.35,0,0,0-.89,4,5.88,5.88,0,0,0,.47,2.38l.42.71-.53.6H135l-.41-1.07.89-.24a4.67,4.67,0,0,0,2.13-1.16,7.33,7.33,0,0,0,1.37-2.64L145,361.25a9.12,9.12,0,0,0,.42-2.07c0-.88-.64-1.49-1.91-1.85l-.65-.17.42-1.07h8.08l7.78,22.39A10.45,10.45,0,0,0,160.43,381.12ZM151.11,373l-4-12.06-4,12.06Z"/><path class="cls-23" d="M195.12,380.32a8.1,8.1,0,0,0,1.9,2.91l-.47.6H186.21l-.41-1.07a6.82,6.82,0,0,0,2.52-1.07,2.65,2.65,0,0,0,.57-2q0-.78-.95-14.44l-.36-5.16-8,22.81H177.9l-8-22.64-.83,13.55c-.16,1.9-.24,3.23-.24,4a8.75,8.75,0,0,0,.38,2.7,11.46,11.46,0,0,0,1.46,2.7l-.53.6h-6.6l-.36-1.07a15.5,15.5,0,0,0,2.23-.83,2,2,0,0,0,1-1,7.37,7.37,0,0,0,.39-2l.71-11.41c.2-2.65.3-4.39.3-5.23a7.38,7.38,0,0,0-.45-3,9.31,9.31,0,0,0-2-2.43l.42-.77h8.67l6.12,18.47L187,356.09h7.67l.59.65a13.08,13.08,0,0,0-1.51,2.73,8.32,8.32,0,0,0-.39,2.79q0,1.14.24,3.51l.77,10.57A13.72,13.72,0,0,0,195.12,380.32Z"/><path class="cls-24" d="M234.44,372l-.47.65a5.58,5.58,0,0,0-1.1,2.32,19.54,19.54,0,0,0-.27,3.8v5.11l-.59.23-3.09-1.6a11.67,11.67,0,0,1-6.53,1.9A12.06,12.06,0,0,1,213,380.5q-3.47-3.86-3.47-10.4,0-6.71,3.77-10.63t10.19-3.92a12.68,12.68,0,0,1,6.68,1.58,4.7,4.7,0,0,1,2.58,4.12,4.49,4.49,0,0,1-2.08,3.92,9,9,0,0,1-5.22,1.43,8.34,8.34,0,0,0,1.3-2.17,7.91,7.91,0,0,0,.48-3A4.44,4.44,0,0,0,226,358.2a3.94,3.94,0,0,0-3-1.22q-3.33,0-5.32,3.59a19.76,19.76,0,0,0-2,9.53,17.77,17.77,0,0,0,1,6.27,10.29,10.29,0,0,0,2.88,4.31,6.39,6.39,0,0,0,4.22,1.54,9.27,9.27,0,0,0,3.45-.65v-5.35a6,6,0,0,0-.24-2,2.06,2.06,0,0,0-.89-1,10.3,10.3,0,0,0-2.14-.8l.36-1.13H234Z"/><path class="cls-25" d="M263.31,381.81a6.92,6.92,0,0,1-5.58,2.55,5.23,5.23,0,0,1-3.36-1,7.74,7.74,0,0,1-2.11-3.36l-1.72-5.22a12.59,12.59,0,0,0-1.07-2.35,3.1,3.1,0,0,0-1.48-1.16l-1-.53.12-.6a10.22,10.22,0,0,0,1.24.06,5.71,5.71,0,0,0,1-.06,5.12,5.12,0,0,0,3.45-2,6.91,6.91,0,0,0,1.25-4.27,7.86,7.86,0,0,0-1.49-5,4.76,4.76,0,0,0-3.92-1.87q-2.67,0-2.67,2.49V376a14.8,14.8,0,0,0,.38,3.72,8.58,8.58,0,0,0,1.4,2.76l.48.71-.48.6H237.41l-.41-1.07a10.3,10.3,0,0,0,2.14-.8,2,2,0,0,0,.89-1,6.3,6.3,0,0,0,.24-2V363.1a11.67,11.67,0,0,0-.33-3.18,3.15,3.15,0,0,0-1.52-1.81l-.71-.42.24-.77a27.7,27.7,0,0,1,4.72-1,38.7,38.7,0,0,1,5.14-.39q5.64,0,8.91,2.26A7.11,7.11,0,0,1,260,364a7.36,7.36,0,0,1-1.76,4.84,8.48,8.48,0,0,1-4.48,2.82,5.39,5.39,0,0,1,3,3.21l2.08,5.82a1.83,1.83,0,0,0,1.84,1.42,3.43,3.43,0,0,0,2.2-1Z"/><path class="cls-26" d="M267.35,380.5q-3.62-3.86-3.62-10.51t3.62-10.55a14.33,14.33,0,0,1,19.63,0q3.66,3.9,3.66,10.55T287,380.47a14.37,14.37,0,0,1-19.63,0Zm13.52.86a10.91,10.91,0,0,0,2.64-4.54,21.76,21.76,0,0,0,.95-6.72,23.61,23.61,0,0,0-.92-6.83,11.57,11.57,0,0,0-2.56-4.72,5,5,0,0,0-3.71-1.69,5.45,5.45,0,0,0-3.92,1.69,11.12,11.12,0,0,0-2.67,4.75,23.34,23.34,0,0,0-.95,7,18.76,18.76,0,0,0,2,9.24C273,381.84,274.76,383,277,383A5.44,5.44,0,0,0,280.87,381.36Z"/><path class="cls-27" d="M314,381.72c-1.74,1.76-4.3,2.64-7.66,2.64a10.56,10.56,0,0,1-7.72-2.73c-1.87-1.82-2.8-4.38-2.8-7.66V363.33a11.78,11.78,0,0,0-.47-3.92,7.12,7.12,0,0,0-2.08-2.55l.42-.77h10.39l.42,1a8.71,8.71,0,0,0-2,1.27,2.88,2.88,0,0,0-.81,1.46,12.64,12.64,0,0,0-.2,2.67V374.5a9.94,9.94,0,0,0,1.54,6,5.29,5.29,0,0,0,4.51,2.05,6.56,6.56,0,0,0,5.23-2.11,8.78,8.78,0,0,0,1.84-6V361a3.57,3.57,0,0,0-.68-2.53,7.49,7.49,0,0,0-2.94-1.33l.42-1.07h6.89l.53.65-.53.65a8.42,8.42,0,0,0-1.4,2.77,13,13,0,0,0-.33,3.71V374C316.65,377.37,315.78,380,314,381.72Z"/><path class="cls-28" d="M343.65,369.24a8,8,0,0,1-3.21,2.94,9,9,0,0,1-4.19,1,8.71,8.71,0,0,1-4.39-1.18l.12-.54,1,.06,1-.06a5.34,5.34,0,0,0,3.62-2.11,7.62,7.62,0,0,0,1.31-4.66,9.81,9.81,0,0,0-1.46-5.49,4.53,4.53,0,0,0-4-2.23,2.43,2.43,0,0,0-2,.77,2.69,2.69,0,0,0-.62,1.72V376a14.23,14.23,0,0,0,.39,3.75,8.41,8.41,0,0,0,1.39,2.73l.48.71-.48.6H322.3l-.42-1.07a10.16,10.16,0,0,0,2.17-.78,1.86,1.86,0,0,0,.86-1,6.45,6.45,0,0,0,.24-2.07V363.1a11.67,11.67,0,0,0-.33-3.18,3.17,3.17,0,0,0-1.51-1.81l-.72-.42.24-.77a31.13,31.13,0,0,1,4.49-.95,34.94,34.94,0,0,1,5.25-.42q6.06,0,9.18,2.53a8.76,8.76,0,0,1,1.9,11.16Z"/><path class="cls-29" d="M32.94,408.38h2.21v6.22h7.73v-6.22h2.18v16.17H42.88v-7.77H35.15v7.77H32.94Z"/><path class="cls-30" d="M49.94,408.38h9v2.21H52.13v4H58.9v2.19H52.13v5.55H58.9v2.19h-9Z"/><path class="cls-31" d="M63.38,408.38h2.18v14h5.27v2.19H63.38Z"/><path class="cls-32" d="M75.14,408.38h3.25a7.14,7.14,0,0,1,4.44,1.29A4.08,4.08,0,0,1,84.52,413a4.3,4.3,0,0,1-1.79,3.49c-1.18.94-3,1.39-5.41,1.37v6.65H75.14Zm2.18,1.93V416a7.85,7.85,0,0,0,3.69-.71,2.3,2.3,0,0,0,1.2-2.17,2.54,2.54,0,0,0-.91-2C80.7,410.58,79.37,410.31,77.32,410.31Z"/><path class="cls-33" d="M97.23,416.37a8,8,0,0,1,2.64-6,8.92,8.92,0,0,1,6.34-2.5,8.66,8.66,0,0,1,6.23,2.52,8,8,0,0,1,2.62,6,8.33,8.33,0,0,1-2.58,6.19,9.15,9.15,0,0,1-12.65,0A8.33,8.33,0,0,1,97.23,416.37Zm15.48.1a6,6,0,0,0-1.93-4.51,6.62,6.62,0,0,0-4.74-1.83,6.33,6.33,0,0,0-4.59,1.86,6,6,0,0,0-1.91,4.48,5.88,5.88,0,0,0,2,4.48,6.78,6.78,0,0,0,4.8,1.83,6.19,6.19,0,0,0,4.51-1.87A6,6,0,0,0,112.71,416.47Z"/><path class="cls-34" d="M118,408.38h9.88v2.21H124v14h-2.18v-14H118Z"/><path class="cls-35" d="M132,408.38h2.21v6.22h7.73v-6.22h2.18v16.17h-2.18v-7.77H134.2v7.77H132Z"/><path class="cls-36" d="M149,408.38h9v2.21h-6.78v4H158v2.19h-6.78v5.55H158v2.19h-9Z"/><path class="cls-37" d="M162.46,408.38H166a6.66,6.66,0,0,1,4.26,1.3,4.08,4.08,0,0,1,1.64,3.33,4.29,4.29,0,0,1-1.06,2.87,6,6,0,0,1-3.32,1.75l4.7,6.92h-2.53l-4.49-6.65h-.49v6.65h-2.21Zm2.21,1.95V416c3.25.07,4.88-.88,4.88-2.83a2.44,2.44,0,0,0-.57-1.68,2.88,2.88,0,0,0-1.52-.89A12.26,12.26,0,0,0,164.67,410.33Z"/><path class="cls-38" d="M186.54,410.18l-1.79,1.44a7.2,7.2,0,0,0-1.28-1.1,3.19,3.19,0,0,0-1.67-.36,3.26,3.26,0,0,0-1.93.53,1.65,1.65,0,0,0-.74,1.39,1.7,1.7,0,0,0,.65,1.3,9.07,9.07,0,0,0,2.2,1.23,15.74,15.74,0,0,1,2.43,1.24,6.12,6.12,0,0,1,1.42,1.28,4.8,4.8,0,0,1,1.1,3.11,4.59,4.59,0,0,1-1.46,3.43,4.91,4.91,0,0,1-3.55,1.42,6,6,0,0,1-3.58-1.11,6.89,6.89,0,0,1-2.39-3.33l2.2-.62q1.22,2.73,3.7,2.73a2.87,2.87,0,0,0,2-.72,2.36,2.36,0,0,0,.8-1.83,2.47,2.47,0,0,0-.42-1.32,3.74,3.74,0,0,0-1-1.09,11.16,11.16,0,0,0-2-1,13.63,13.63,0,0,1-2.09-1,5.62,5.62,0,0,1-1.27-1.1,4.64,4.64,0,0,1-.78-1.28,3.56,3.56,0,0,1-.25-1.35,3.79,3.79,0,0,1,1.4-3,4.94,4.94,0,0,1,3.38-1.23,6.87,6.87,0,0,1,2.68.57A5.45,5.45,0,0,1,186.54,410.18Z"/><path class="cls-39" d="M206.7,415.8l3.35,3.58,1.83-2,1.56,1.39-1.92,2.15,3.4,3.6H212l-1.92-2c-1.82,1.74-3.6,2.62-5.33,2.62a5.75,5.75,0,0,1-3.85-1.39,4.21,4.21,0,0,1-1.63-3.3,3.64,3.64,0,0,1,.73-2.34,16.78,16.78,0,0,1,3.32-2.7l-.41-.57a8.09,8.09,0,0,1-1.32-2.08,4,4,0,0,1-.21-1.19,3.62,3.62,0,0,1,1.13-2.57,4,4,0,0,1,3-1.17,3.86,3.86,0,0,1,2.8,1.12,3.61,3.61,0,0,1,1.16,2.7Q209.52,413.91,206.7,415.8Zm2,5.13-3.79-4a13.71,13.71,0,0,0-2.73,2.09,2.24,2.24,0,0,0-.57,1.41,2.29,2.29,0,0,0,.95,1.83,3.5,3.5,0,0,0,2.27.77,3.72,3.72,0,0,0,1.87-.5A10.7,10.7,0,0,0,208.65,420.93Zm-3.45-6.68a10,10,0,0,0,1.68-1.35,1.85,1.85,0,0,0,.56-1.27,1.61,1.61,0,0,0-.53-1.25,2.08,2.08,0,0,0-1.43-.46,2.06,2.06,0,0,0-1.37.45,1.46,1.46,0,0,0-.54,1.16C203.57,412.2,204.11,413.11,205.2,414.25Z"/><path class="cls-40" d="M227.89,408.38h2.56a7.17,7.17,0,0,1,4.13,1.1,3.27,3.27,0,0,1,1.6,2.77c0,1.36-.79,2.49-2.37,3.41q3.66,1.21,3.66,4.23a3.92,3.92,0,0,1-1.88,3.37,8.81,8.81,0,0,1-5.05,1.29h-2.65Zm2.18,1.95v4.79a5,5,0,0,0,2.8-.7,2.13,2.13,0,0,0,1-1.85,1.91,1.91,0,0,0-.88-1.65,4,4,0,0,0-2.34-.61Zm0,6.7v5.54h.18c1.9,0,3.2-.31,3.89-.92a2.54,2.54,0,0,0,1.05-1.86,2.29,2.29,0,0,0-1.17-2,5.9,5.9,0,0,0-3.2-.75Z"/><path class="cls-41" d="M242,408.38h9v2.21h-6.78v4h6.78v2.19h-6.78v5.55h6.78v2.19h-9Z"/><path class="cls-42" d="M263.87,408.38h2.21v6.22h7.73v-6.22H276v16.17h-2.18v-7.77h-7.73v7.77h-2.21Z"/><path class="cls-43" d="M287.08,407.76l7.64,16.79H292.4l-1.87-4.14h-6.86l-1.86,4.14h-2.29Zm0,5-2.59,5.77h5.2Z"/><path class="cls-44" d="M298.83,408.38h3.25a7.14,7.14,0,0,1,4.44,1.29A4.07,4.07,0,0,1,308.2,413a4.29,4.29,0,0,1-1.78,3.49c-1.19.94-3,1.39-5.41,1.37v6.65h-2.18Zm2.18,1.93V416a7.85,7.85,0,0,0,3.69-.71,2.31,2.31,0,0,0,1.19-2.17,2.57,2.57,0,0,0-.9-2C304.38,410.58,303.06,410.31,301,410.31Z"/><path class="cls-45" d="M313.38,408.38h3.25a7.14,7.14,0,0,1,4.44,1.29,4.08,4.08,0,0,1,1.69,3.37,4.3,4.3,0,0,1-1.79,3.49c-1.18.94-3,1.39-5.41,1.37v6.65h-2.18Zm2.18,1.93V416a7.85,7.85,0,0,0,3.69-.71,2.3,2.3,0,0,0,1.2-2.17,2.58,2.58,0,0,0-.91-2C318.94,410.58,317.61,410.31,315.56,410.31Z"/><path class="cls-46" d="M326.45,408.38h2.44l4,6.51,3.93-6.51h2.45l-5.31,8.76v7.41h-2.2v-7.39Z"/><path class="cls-47" d="M340.63,423.06a1.7,1.7,0,0,1,2.92-1.2,1.63,1.63,0,0,1,.51,1.2,1.66,1.66,0,0,1-.5,1.21,1.64,1.64,0,0,1-1.21.5,1.69,1.69,0,0,1-1.72-1.71Z"/><rect class="cls-48" x="30.72" y="395.64" width="315.56" height="1.86"/></svg>